<mxfile host="app.diagrams.net" modified="2020-11-25T06:01:25.137Z" agent="5.0 (Windows NT 10.0; Win64; x64) AppleWebKit/537.36 (KHTML, like Gecko) Chrome/87.0.4280.66 Safari/537.36" etag="uYZTMRuYhMI_ZATC2HK6" version="13.10.1" type="github">
  <diagram id="iHLcknwf-VZENnPthTU1" name="Page-1">
    <mxGraphModel dx="1038" dy="548" grid="1" gridSize="10" guides="1" tooltips="1" connect="1" arrows="1" fold="1" page="1" pageScale="1" pageWidth="827" pageHeight="1169" math="0" shadow="0">
      <root>
        <mxCell id="0" />
        <mxCell id="1" parent="0" />
        <mxCell id="el0VFsla45utZIHHrq3E-1" value="截短后的3508电机&lt;br&gt;质量：296.5" style="rounded=0;whiteSpace=wrap;html=1;" parent="1" vertex="1">
          <mxGeometry x="170" y="100" width="120" height="60" as="geometry" />
        </mxCell>
        <mxCell id="el0VFsla45utZIHHrq3E-10" value="" style="edgeStyle=orthogonalEdgeStyle;rounded=0;orthogonalLoop=1;jettySize=auto;html=1;" parent="1" source="el0VFsla45utZIHHrq3E-2" target="el0VFsla45utZIHHrq3E-1" edge="1">
          <mxGeometry relative="1" as="geometry" />
        </mxCell>
        <mxCell id="el0VFsla45utZIHHrq3E-2" value="C620电调&lt;br&gt;质量：37.6" style="whiteSpace=wrap;html=1;rounded=0;" parent="1" vertex="1">
          <mxGeometry x="360" y="100" width="120" height="60" as="geometry" />
        </mxCell>
        <mxCell id="el0VFsla45utZIHHrq3E-9" value="" style="edgeStyle=orthogonalEdgeStyle;rounded=0;orthogonalLoop=1;jettySize=auto;html=1;" parent="1" source="el0VFsla45utZIHHrq3E-4" target="el0VFsla45utZIHHrq3E-2" edge="1">
          <mxGeometry relative="1" as="geometry" />
        </mxCell>
        <mxCell id="el0VFsla45utZIHHrq3E-24" style="edgeStyle=orthogonalEdgeStyle;rounded=0;orthogonalLoop=1;jettySize=auto;html=1;exitX=0.5;exitY=0;exitDx=0;exitDy=0;entryX=1;entryY=0.5;entryDx=0;entryDy=0;" parent="1" source="el0VFsla45utZIHHrq3E-4" target="el0VFsla45utZIHHrq3E-19" edge="1">
          <mxGeometry relative="1" as="geometry" />
        </mxCell>
        <mxCell id="el0VFsla45utZIHHrq3E-26" style="edgeStyle=orthogonalEdgeStyle;rounded=0;orthogonalLoop=1;jettySize=auto;html=1;exitX=0.5;exitY=0;exitDx=0;exitDy=0;entryX=1;entryY=0.5;entryDx=0;entryDy=0;" parent="1" source="el0VFsla45utZIHHrq3E-4" target="el0VFsla45utZIHHrq3E-21" edge="1">
          <mxGeometry relative="1" as="geometry" />
        </mxCell>
        <mxCell id="el0VFsla45utZIHHrq3E-27" style="edgeStyle=orthogonalEdgeStyle;rounded=0;orthogonalLoop=1;jettySize=auto;html=1;exitX=0.5;exitY=0;exitDx=0;exitDy=0;entryX=1;entryY=0.5;entryDx=0;entryDy=0;" parent="1" source="el0VFsla45utZIHHrq3E-4" target="el0VFsla45utZIHHrq3E-12" edge="1">
          <mxGeometry relative="1" as="geometry" />
        </mxCell>
        <mxCell id="el0VFsla45utZIHHrq3E-4" value="USB转CAN" style="whiteSpace=wrap;html=1;rounded=0;" parent="1" vertex="1">
          <mxGeometry x="360" y="290" width="120" height="60" as="geometry" />
        </mxCell>
        <mxCell id="el0VFsla45utZIHHrq3E-6" value="这个文档粗略画了电子硬件的接线图，标注了尺寸。关于各个零件的尺寸和其他需要补充的，比如散热区域和接线口，将会在其他文件中补充。" style="shape=process;whiteSpace=wrap;html=1;backgroundOutline=1;" parent="1" vertex="1">
          <mxGeometry x="219" y="20" width="390" height="60" as="geometry" />
        </mxCell>
        <mxCell id="el0VFsla45utZIHHrq3E-8" value="" style="edgeStyle=orthogonalEdgeStyle;rounded=0;orthogonalLoop=1;jettySize=auto;html=1;" parent="1" source="el0VFsla45utZIHHrq3E-7" target="el0VFsla45utZIHHrq3E-4" edge="1">
          <mxGeometry relative="1" as="geometry" />
        </mxCell>
        <mxCell id="el0VFsla45utZIHHrq3E-29" value="" style="edgeStyle=orthogonalEdgeStyle;rounded=0;orthogonalLoop=1;jettySize=auto;html=1;" parent="1" source="el0VFsla45utZIHHrq3E-7" target="el0VFsla45utZIHHrq3E-28" edge="1">
          <mxGeometry relative="1" as="geometry" />
        </mxCell>
        <mxCell id="el0VFsla45utZIHHrq3E-35" value="" style="edgeStyle=orthogonalEdgeStyle;rounded=0;orthogonalLoop=1;jettySize=auto;html=1;" parent="1" source="el0VFsla45utZIHHrq3E-7" target="el0VFsla45utZIHHrq3E-34" edge="1">
          <mxGeometry relative="1" as="geometry" />
        </mxCell>
        <mxCell id="el0VFsla45utZIHHrq3E-7" value="NUC电脑&lt;br&gt;质量：564.8" style="rounded=1;whiteSpace=wrap;html=1;" parent="1" vertex="1">
          <mxGeometry x="360" y="380" width="120" height="60" as="geometry" />
        </mxCell>
        <mxCell id="el0VFsla45utZIHHrq3E-11" value="3508电机" style="rounded=0;whiteSpace=wrap;html=1;" parent="1" vertex="1">
          <mxGeometry x="154.5" y="170" width="60" height="30" as="geometry" />
        </mxCell>
        <mxCell id="el0VFsla45utZIHHrq3E-17" value="" style="edgeStyle=orthogonalEdgeStyle;rounded=0;orthogonalLoop=1;jettySize=auto;html=1;" parent="1" source="el0VFsla45utZIHHrq3E-12" target="el0VFsla45utZIHHrq3E-11" edge="1">
          <mxGeometry relative="1" as="geometry" />
        </mxCell>
        <mxCell id="el0VFsla45utZIHHrq3E-12" value="C620电调" style="whiteSpace=wrap;html=1;rounded=0;" parent="1" vertex="1">
          <mxGeometry x="245.5" y="170" width="60" height="30" as="geometry" />
        </mxCell>
        <mxCell id="el0VFsla45utZIHHrq3E-18" value="3508电机" style="rounded=0;whiteSpace=wrap;html=1;" parent="1" vertex="1">
          <mxGeometry x="154.5" y="250" width="60" height="30" as="geometry" />
        </mxCell>
        <mxCell id="el0VFsla45utZIHHrq3E-23" style="edgeStyle=orthogonalEdgeStyle;rounded=0;orthogonalLoop=1;jettySize=auto;html=1;exitX=0;exitY=0.5;exitDx=0;exitDy=0;entryX=1;entryY=0.5;entryDx=0;entryDy=0;" parent="1" source="el0VFsla45utZIHHrq3E-19" target="el0VFsla45utZIHHrq3E-18" edge="1">
          <mxGeometry relative="1" as="geometry" />
        </mxCell>
        <mxCell id="el0VFsla45utZIHHrq3E-19" value="C620电调" style="whiteSpace=wrap;html=1;rounded=0;" parent="1" vertex="1">
          <mxGeometry x="245.5" y="250" width="60" height="30" as="geometry" />
        </mxCell>
        <mxCell id="el0VFsla45utZIHHrq3E-20" value="3508电机" style="rounded=0;whiteSpace=wrap;html=1;" parent="1" vertex="1">
          <mxGeometry x="154.5" y="210" width="60" height="30" as="geometry" />
        </mxCell>
        <mxCell id="el0VFsla45utZIHHrq3E-22" style="edgeStyle=orthogonalEdgeStyle;rounded=0;orthogonalLoop=1;jettySize=auto;html=1;exitX=0;exitY=0.5;exitDx=0;exitDy=0;entryX=1;entryY=0.5;entryDx=0;entryDy=0;" parent="1" source="el0VFsla45utZIHHrq3E-21" target="el0VFsla45utZIHHrq3E-20" edge="1">
          <mxGeometry relative="1" as="geometry" />
        </mxCell>
        <mxCell id="el0VFsla45utZIHHrq3E-21" value="C620电调" style="whiteSpace=wrap;html=1;rounded=0;" parent="1" vertex="1">
          <mxGeometry x="245.5" y="210" width="60" height="30" as="geometry" />
        </mxCell>
        <mxCell id="el0VFsla45utZIHHrq3E-31" value="" style="edgeStyle=orthogonalEdgeStyle;rounded=0;orthogonalLoop=1;jettySize=auto;html=1;" parent="1" source="el0VFsla45utZIHHrq3E-28" target="el0VFsla45utZIHHrq3E-30" edge="1">
          <mxGeometry relative="1" as="geometry" />
        </mxCell>
        <mxCell id="el0VFsla45utZIHHrq3E-28" value="USB转485串口" style="rounded=0;whiteSpace=wrap;html=1;" parent="1" vertex="1">
          <mxGeometry x="200" y="380" width="120" height="60" as="geometry" />
        </mxCell>
        <mxCell id="el0VFsla45utZIHHrq3E-33" value="" style="edgeStyle=orthogonalEdgeStyle;rounded=0;orthogonalLoop=1;jettySize=auto;html=1;" parent="1" source="el0VFsla45utZIHHrq3E-30" target="el0VFsla45utZIHHrq3E-32" edge="1">
          <mxGeometry relative="1" as="geometry" />
        </mxCell>
        <mxCell id="el0VFsla45utZIHHrq3E-30" value="舵机1&lt;br&gt;质量：82" style="rounded=0;whiteSpace=wrap;html=1;" parent="1" vertex="1">
          <mxGeometry x="34.5" y="380" width="120" height="60" as="geometry" />
        </mxCell>
        <mxCell id="el0VFsla45utZIHHrq3E-32" value="舵机2" style="rounded=0;whiteSpace=wrap;html=1;" parent="1" vertex="1">
          <mxGeometry x="34.5" y="470" width="120" height="60" as="geometry" />
        </mxCell>
        <mxCell id="el0VFsla45utZIHHrq3E-37" value="" style="edgeStyle=orthogonalEdgeStyle;rounded=0;orthogonalLoop=1;jettySize=auto;html=1;" parent="1" source="el0VFsla45utZIHHrq3E-34" target="el0VFsla45utZIHHrq3E-36" edge="1">
          <mxGeometry relative="1" as="geometry" />
        </mxCell>
        <mxCell id="el0VFsla45utZIHHrq3E-34" value="USB转串口" style="rounded=0;whiteSpace=wrap;html=1;" parent="1" vertex="1">
          <mxGeometry x="540" y="380" width="120" height="60" as="geometry" />
        </mxCell>
        <mxCell id="el0VFsla45utZIHHrq3E-39" value="" style="edgeStyle=orthogonalEdgeStyle;rounded=0;orthogonalLoop=1;jettySize=auto;html=1;" parent="1" source="el0VFsla45utZIHHrq3E-36" target="el0VFsla45utZIHHrq3E-38" edge="1">
          <mxGeometry relative="1" as="geometry" />
        </mxCell>
        <mxCell id="el0VFsla45utZIHHrq3E-36" value="单片机" style="rounded=0;whiteSpace=wrap;html=1;" parent="1" vertex="1">
          <mxGeometry x="540" y="470" width="120" height="60" as="geometry" />
        </mxCell>
        <mxCell id="el0VFsla45utZIHHrq3E-38" value="遥控接收机" style="rounded=0;whiteSpace=wrap;html=1;" parent="1" vertex="1">
          <mxGeometry x="540" y="560" width="120" height="60" as="geometry" />
        </mxCell>
        <mxCell id="el0VFsla45utZIHHrq3E-44" value="" style="edgeStyle=orthogonalEdgeStyle;rounded=0;orthogonalLoop=1;jettySize=auto;html=1;" parent="1" source="el0VFsla45utZIHHrq3E-40" target="el0VFsla45utZIHHrq3E-7" edge="1">
          <mxGeometry relative="1" as="geometry" />
        </mxCell>
        <mxCell id="el0VFsla45utZIHHrq3E-40" value="NUC稳压电源&lt;br&gt;质量：261.3" style="ellipse;whiteSpace=wrap;html=1;" parent="1" vertex="1">
          <mxGeometry x="360" y="480" width="120" height="80" as="geometry" />
        </mxCell>
        <mxCell id="el0VFsla45utZIHHrq3E-43" value="" style="edgeStyle=orthogonalEdgeStyle;rounded=0;orthogonalLoop=1;jettySize=auto;html=1;" parent="1" source="el0VFsla45utZIHHrq3E-41" target="el0VFsla45utZIHHrq3E-28" edge="1">
          <mxGeometry relative="1" as="geometry" />
        </mxCell>
        <mxCell id="el0VFsla45utZIHHrq3E-41" value="舵机稳压电源&lt;br&gt;质量：38.8" style="ellipse;whiteSpace=wrap;html=1;" parent="1" vertex="1">
          <mxGeometry x="200" y="480" width="120" height="80" as="geometry" />
        </mxCell>
        <mxCell id="el0VFsla45utZIHHrq3E-46" value="" style="edgeStyle=orthogonalEdgeStyle;rounded=0;orthogonalLoop=1;jettySize=auto;html=1;" parent="1" source="el0VFsla45utZIHHrq3E-45" target="el0VFsla45utZIHHrq3E-40" edge="1">
          <mxGeometry relative="1" as="geometry" />
        </mxCell>
        <mxCell id="el0VFsla45utZIHHrq3E-47" style="edgeStyle=orthogonalEdgeStyle;rounded=0;orthogonalLoop=1;jettySize=auto;html=1;entryX=0.5;entryY=1;entryDx=0;entryDy=0;" parent="1" source="el0VFsla45utZIHHrq3E-45" target="el0VFsla45utZIHHrq3E-41" edge="1">
          <mxGeometry relative="1" as="geometry" />
        </mxCell>
        <mxCell id="el0VFsla45utZIHHrq3E-48" style="edgeStyle=orthogonalEdgeStyle;rounded=0;orthogonalLoop=1;jettySize=auto;html=1;entryX=1;entryY=0.5;entryDx=0;entryDy=0;" parent="1" source="el0VFsla45utZIHHrq3E-45" target="el0VFsla45utZIHHrq3E-49" edge="1">
          <mxGeometry relative="1" as="geometry">
            <mxPoint x="730" y="220" as="targetPoint" />
            <Array as="points">
              <mxPoint x="780" y="670" />
              <mxPoint x="780" y="225" />
            </Array>
          </mxGeometry>
        </mxCell>
        <mxCell id="el0VFsla45utZIHHrq3E-45" value="6s 5300mah电池&lt;br&gt;质量：593.4" style="ellipse;whiteSpace=wrap;html=1;" parent="1" vertex="1">
          <mxGeometry x="360" y="630" width="120" height="80" as="geometry" />
        </mxCell>
        <mxCell id="el0VFsla45utZIHHrq3E-51" style="edgeStyle=orthogonalEdgeStyle;rounded=0;orthogonalLoop=1;jettySize=auto;html=1;exitX=0;exitY=0.5;exitDx=0;exitDy=0;entryX=1;entryY=0.5;entryDx=0;entryDy=0;" parent="1" source="el0VFsla45utZIHHrq3E-49" target="el0VFsla45utZIHHrq3E-21" edge="1">
          <mxGeometry relative="1" as="geometry" />
        </mxCell>
        <mxCell id="el0VFsla45utZIHHrq3E-49" value="电调分电板" style="ellipse;whiteSpace=wrap;html=1;" parent="1" vertex="1">
          <mxGeometry x="530" y="185" width="120" height="80" as="geometry" />
        </mxCell>
        <mxCell id="WmENeoFKFONwN9jsfEpG-1" value="线材、器件等&lt;br&gt;质量：200" style="rounded=1;whiteSpace=wrap;html=1;" vertex="1" parent="1">
          <mxGeometry x="50" y="630" width="120" height="60" as="geometry" />
        </mxCell>
        <mxCell id="WmENeoFKFONwN9jsfEpG-2" value="总质量：3158.7&lt;br&gt;除去电机电调：1822.3" style="rounded=1;whiteSpace=wrap;html=1;" vertex="1" parent="1">
          <mxGeometry x="50" y="740" width="120" height="60" as="geometry" />
        </mxCell>
      </root>
    </mxGraphModel>
  </diagram>
</mxfile>
